<svg fill="none" height="32" viewBox="0 0 104 32" width="104" xmlns="http://www.w3.org/2000/svg"><path d="m13.2295 0c-7.32198 0-13.2295 5.9013-13.2295 13.2156v18.7844l5.5747-5.5688v-13.2156c0-4.15586 3.41139-7.56365 7.5716-7.56365 4.1602 0 7.5716 3.40779 7.5716 7.56365 0 4.1558-3.3282 7.5636-7.4884 7.5636h-1.9969l-5.57469 5.5689h7.57159c7.322 0 13.2295-5.9013 13.2295-13.2156 0-7.31432-5.9907-13.1325-13.2295-13.1325z" fill="#1a5bd1"/><g fill="#fff"><path d="m60.8209 7.23156v.83117c-2.8289-2.41039-7.1553-2.07792-9.5682.74805-2.4128 2.82602-2.08 7.14802.7488 9.55842 2.5793 2.1611 6.2401 2.1611 8.8194 0v1.5792h2.4128v-13.54801zm-4.4097 10.38964c-2.4128 0-4.4097-1.9948-4.4097-4.4052s1.9969-4.40522 4.4097-4.40522 4.4097 1.99482 4.4097 4.40522-1.9969 4.4052-4.4097 4.4052z"/><path d="m90.4459 7.23156v.83117c-2.8289-2.41039-7.1553-2.07792-9.5682.74805-2.4128 2.82602-2.08 7.14802.7488 9.55842 2.5793 2.1611 6.2401 2.1611 8.8194 0v1.5792h2.4128v-13.54801zm-4.4097 10.38964c-2.4128 0-4.4097-1.9948-4.4097-4.4052s1.9969-4.40522 4.4097-4.40522 4.4097 1.99482 4.4097 4.40522-1.9969 4.4052-4.4097 4.4052z"/><path d="m98.4323 19.9478h-2.4128v-16.78959l2.4128-.74805z"/><path d="m103.999 19.9478h-2.413v-16.78959l2.413-.74805z"/><path d="m41.1897 6.40039c-3.7441 0-6.8225 3.07532-6.8225 6.81561v10.8052l2.4128-2.4104v-1.6624h4.4097c3.744 0 6.8224-3.0753 6.8224-6.8155 0-3.7403-3.0784-6.73251-6.8224-6.73251zm0 11.22081h-4.4097v-4.4052c0-2.4104 1.9968-4.40522 4.4097-4.40522 2.4128 0 4.4096 1.99482 4.4096 4.40522s-1.9968 4.4052-4.4096 4.4052z"/><path d="m76.4646 6.40039-4.4929 8.14541-4.4097-8.14541h-2.7456l5.8241 10.63891-3.8273 6.8987h2.8289l9.5681-17.53761z"/></g></svg>